<svg xmlns="http://www.w3.org/2000/svg" width="1000" height="1000" viewBox="0 0 1000 1000">
<g>
<path d="M 384.20 469.76 C376.67,469.90 366.07,470.13 360.66,470.26 C354.35,470.41 350.50,470.10 349.90,469.38 C349.36,468.73 349.08,454.14 349.24,434.38 L 349.50 400.50 L 367.75 400.23 C377.79,400.08 388.14,400.36 390.75,400.87 C394.25,401.54 389.50,401.81 372.74,401.89 L 349.97 402.00 L 350.24 435.25 L 350.50 468.50 L 370.50 468.50 C381.50,468.50 392.75,468.13 395.50,467.67 C399.66,466.98 400.28,467.06 399.20,468.17 C398.27,469.12 394.01,469.57 384.20,469.76 ZM 151.45 519.00 C151.85,523.12 152.01,528.08 151.80,530.00 C151.59,532.02 151.08,529.41 150.60,523.84 C150.15,518.52 149.99,513.57 150.25,512.84 C150.51,512.10 151.05,514.88 151.45,519.00 Z" fill="rgb(244,173,92)"/>
<path d="M 554.00 154.11 C554.00,155.13 552.84,155.11 548.20,154.01 C543.50,152.90 543.07,152.00 547.25,152.00 C551.37,152.00 554.00,152.82 554.00,154.11 Z" fill="rgb(255,232,201)"/>
<path d="M 151.45 519.00 C151.09,515.22 150.60,512.58 150.32,512.72 C150.22,507.34 150.25,501.79 150.41,496.00 C151.07,471.96 152.59,451.76 153.97,448.50 C154.44,447.40 155.34,442.47 155.98,437.55 C156.61,432.63 158.69,422.50 160.60,415.05 C177.15,350.44 208.46,296.04 255.66,249.91 C299.10,207.47 344.25,181.36 406.50,162.70 C417.47,159.41 439.14,155.05 444.69,155.02 C446.45,155.01 448.12,154.62 448.41,154.15 C449.93,151.69 500.31,149.51 521.00,151.02 C529.53,151.64 539.98,152.14 544.23,152.13 C543.48,152.42 544.56,153.15 548.20,154.01 C552.84,155.11 554.00,155.13 554.00,154.11 C554.00,154.03 553.99,153.95 553.97,153.88 C555.22,154.50 557.65,155.14 560.06,155.44 C569.91,156.68 596.47,163.14 607.50,166.99 C610.80,168.14 615.75,169.78 618.50,170.65 C632.08,174.91 663.06,189.54 679.36,199.40 C704.21,214.42 717.58,224.43 738.50,243.69 C776.86,279.01 807.01,323.50 826.47,373.50 C828.83,379.55 831.27,386.08 831.89,388.00 C836.15,401.09 838.00,407.42 839.49,414.00 C840.42,418.12 841.60,422.90 842.10,424.60 C843.96,430.86 847.98,458.14 848.98,471.13 C850.92,496.67 849.81,532.95 846.51,551.50 C845.73,555.90 844.59,562.42 843.97,566.00 C837.14,605.42 817.74,653.95 794.63,689.39 C755.05,750.10 701.60,794.92 635.50,822.82 C601.37,837.23 565.08,846.19 529.60,848.99 C514.65,850.16 483.17,850.10 468.00,848.87 C456.74,847.95 436.29,844.83 426.50,842.54 C414.87,839.81 399.46,835.77 396.00,834.53 C394.08,833.85 390.70,832.72 388.50,832.02 C369.55,826.02 336.05,810.37 318.77,799.44 C313.12,795.87 307.62,792.39 306.55,791.72 C305.48,791.05 300.31,787.39 295.05,783.58 C255.73,755.11 220.59,716.19 196.99,675.00 C187.26,658.01 174.20,630.07 171.05,619.50 C170.40,617.30 169.45,614.60 168.95,613.50 C166.97,609.17 159.78,583.55 158.57,576.50 C158.28,574.85 157.61,571.47 157.07,569.00 C153.92,554.57 151.94,541.30 150.97,527.50 C151.32,530.44 151.64,531.50 151.80,530.00 C152.01,528.08 151.85,523.12 151.45,519.00 ZM 297.90 651.25 C299.17,652.83 301.64,653.00 322.95,653.00 C340.01,653.00 346.93,652.67 347.80,651.80 C348.71,650.89 349.00,635.23 349.00,587.42 C349.00,532.45 349.20,524.08 350.50,523.00 C351.62,522.07 356.56,521.86 369.90,522.17 L 387.80 522.60 L 395.47 526.39 C401.71,529.47 404.01,531.30 407.80,536.18 C410.02,539.03 411.66,541.00 412.89,543.21 C416.62,549.92 416.47,558.80 416.76,601.47 C417.02,638.88 417.41,651.64 418.30,652.21 C418.96,652.63 430.16,652.98 443.18,652.98 C464.03,653.00 467.06,652.80 468.54,651.32 C470.08,649.78 470.18,645.46 469.72,598.57 C469.30,555.15 468.98,546.60 467.57,541.50 C466.66,538.20 465.54,534.07 465.08,532.33 C463.56,526.53 456.22,512.53 451.58,506.55 C449.06,503.30 447.00,500.24 447.00,499.75 C447.00,499.25 449.15,496.29 451.77,493.17 C458.27,485.44 460.19,482.55 464.46,474.08 C471.99,459.13 474.49,446.93 473.56,429.74 C472.81,415.94 469.79,404.54 464.39,395.12 C451.77,373.11 436.28,360.48 411.91,352.32 L 403.50 349.50 L 297.50 349.50 L 297.00 499.50 C296.57,627.55 296.70,649.76 297.90,651.25 ZM 508.11 651.63 C509.01,652.72 514.06,653.00 532.87,652.98 C546.00,652.98 557.17,652.55 558.00,652.02 C559.31,651.19 559.57,637.40 560.07,541.55 C560.38,481.31 560.99,431.68 561.41,431.26 C562.18,430.51 568.96,437.73 568.99,439.32 C568.99,439.78 574.97,448.78 582.27,459.32 C589.57,469.87 597.00,480.80 598.79,483.61 C600.57,486.41 602.93,489.53 604.04,490.54 C605.79,492.12 606.24,492.17 607.42,490.93 C608.17,490.14 617.43,476.90 628.01,461.50 C650.01,429.48 650.03,429.45 651.16,431.23 C651.61,431.93 651.98,481.57 651.98,541.55 C652.00,625.02 652.28,650.88 653.20,651.80 C654.48,653.08 700.27,653.60 703.48,652.37 C705.00,651.79 705.08,640.38 704.49,501.62 C704.13,419.05 703.67,350.94 703.45,350.25 C703.15,349.29 696.61,349.00 675.15,349.00 L 647.24 349.00 L 642.97 354.65 C637.43,361.99 619.64,387.61 612.89,397.98 C608.85,404.19 607.14,406.02 605.62,405.79 C604.33,405.60 600.75,401.21 595.56,393.47 C591.13,386.85 582.36,374.13 576.09,365.20 L 564.68 348.97 L 536.59 349.23 L 508.50 349.50 L 507.89 387.50 C506.72,460.82 506.88,650.15 508.11,651.63 ZM 385.97 469.72 C394.53,469.52 398.33,469.06 399.20,468.17 C400.28,467.06 399.66,466.98 395.50,467.67 C392.75,468.13 381.50,468.50 370.50,468.50 L 350.50 468.50 L 350.24 435.25 L 349.97 402.00 L 372.74 401.89 C388.76,401.81 393.81,401.56 391.17,400.95 C394.78,401.26 396.59,401.83 399.20,402.86 C409.81,407.05 418.48,417.23 421.00,428.48 C422.33,434.43 420.90,445.31 418.06,450.88 C415.94,455.04 409.97,460.86 402.50,466.03 L 397.50 469.50 Z" fill="rgb(254,136,0)"/>
<path d="M 0.00 500.00 L 0.00 0.00 L 500.00 0.00 L 1000.00 0.00 L 1000.00 500.00 L 1000.00 1000.00 L 500.00 1000.00 L 0.00 1000.00 L 0.00 500.00 ZM 529.60 848.99 C565.08,846.19 601.37,837.23 635.50,822.82 C701.60,794.92 755.05,750.10 794.63,689.39 C817.74,653.95 837.14,605.42 843.97,566.00 C844.59,562.42 845.73,555.90 846.51,551.50 C849.81,532.95 850.92,496.67 848.98,471.13 C847.98,458.14 843.96,430.86 842.10,424.60 C841.60,422.90 840.42,418.12 839.49,414.00 C838.00,407.42 836.15,401.09 831.89,388.00 C831.27,386.08 828.83,379.55 826.47,373.50 C807.01,323.50 776.86,279.01 738.50,243.69 C717.58,224.43 704.21,214.42 679.36,199.40 C663.06,189.54 632.08,174.91 618.50,170.65 C615.75,169.78 610.80,168.14 607.50,166.99 C596.47,163.14 569.91,156.68 560.06,155.44 C557.07,155.07 554.02,154.16 553.29,153.43 C552.41,152.55 549.35,152.11 544.23,152.13 C539.98,152.14 529.53,151.64 521.00,151.02 C500.31,149.51 449.93,151.69 448.41,154.15 C448.12,154.62 446.45,155.01 444.69,155.02 C439.14,155.05 417.47,159.41 406.50,162.70 C344.25,181.36 299.10,207.47 255.66,249.91 C208.46,296.04 177.15,350.44 160.60,415.05 C158.69,422.50 156.61,432.63 155.98,437.55 C155.34,442.47 154.44,447.40 153.97,448.50 C152.59,451.76 151.07,471.96 150.41,496.00 C149.68,522.67 151.63,544.10 157.07,569.00 C157.61,571.47 158.28,574.85 158.57,576.50 C159.78,583.55 166.97,609.17 168.95,613.50 C169.45,614.60 170.40,617.30 171.05,619.50 C174.20,630.07 187.26,658.01 196.99,675.00 C220.59,716.19 255.73,755.11 295.05,783.58 C300.31,787.39 305.48,791.05 306.55,791.72 C307.62,792.39 313.12,795.87 318.77,799.44 C336.05,810.37 369.55,826.02 388.50,832.02 C390.70,832.72 394.08,833.85 396.00,834.53 C399.46,835.77 414.87,839.81 426.50,842.54 C436.29,844.83 456.74,847.95 468.00,848.87 C483.17,850.10 514.65,850.16 529.60,848.99 ZM 297.90 651.25 C296.70,649.76 296.57,627.55 297.00,499.50 L 297.50 349.50 L 350.50 349.50 L 403.50 349.50 L 411.91 352.32 C436.28,360.48 451.77,373.11 464.39,395.12 C469.79,404.54 472.81,415.94 473.56,429.74 C474.49,446.93 471.99,459.13 464.46,474.08 C460.19,482.55 458.27,485.44 451.77,493.17 C449.15,496.29 447.00,499.25 447.00,499.75 C447.00,500.24 449.06,503.30 451.58,506.55 C456.22,512.53 463.56,526.53 465.08,532.33 C465.54,534.07 466.66,538.20 467.57,541.50 C468.98,546.60 469.30,555.15 469.72,598.57 C470.18,645.46 470.08,649.78 468.54,651.32 C467.06,652.80 464.03,653.00 443.18,652.98 C430.16,652.98 418.96,652.63 418.30,652.21 C417.41,651.64 417.02,638.88 416.76,601.47 C416.37,544.80 416.77,547.73 407.80,536.18 C404.01,531.30 401.71,529.47 395.47,526.39 L 387.80 522.60 L 369.90 522.17 C356.56,521.86 351.62,522.07 350.50,523.00 C349.20,524.08 349.00,532.45 349.00,587.42 C349.00,635.23 348.71,650.89 347.80,651.80 C346.93,652.67 340.01,653.00 322.95,653.00 C301.64,653.00 299.17,652.83 297.90,651.25 ZM 384.00 469.76 L 397.50 469.50 L 402.50 466.03 C409.97,460.86 415.94,455.04 418.06,450.88 C420.90,445.31 422.33,434.43 421.00,428.48 C418.48,417.23 409.81,407.05 399.20,402.86 C393.92,400.77 391.90,400.60 371.50,400.55 L 349.50 400.50 L 349.24 434.38 C349.08,454.14 349.36,468.73 349.90,469.38 C350.50,470.10 354.35,470.41 360.66,470.26 C366.07,470.13 376.58,469.90 384.00,469.76 ZM 508.11 651.63 C506.88,650.15 506.72,460.82 507.89,387.50 L 508.50 349.50 L 536.59 349.23 L 564.68 348.97 L 576.09 365.20 C582.36,374.13 591.13,386.85 595.56,393.47 C600.75,401.21 604.33,405.60 605.62,405.79 C607.14,406.02 608.85,404.19 612.89,397.98 C619.64,387.61 637.43,361.99 642.97,354.65 L 647.24 349.00 L 675.15 349.00 C696.61,349.00 703.15,349.29 703.45,350.25 C703.67,350.94 704.13,419.05 704.49,501.62 C705.08,640.38 705.00,651.79 703.48,652.37 C700.27,653.60 654.48,653.08 653.20,651.80 C652.28,650.88 652.00,625.02 651.98,541.55 C651.98,481.57 651.61,431.93 651.16,431.23 C650.03,429.45 650.01,429.48 628.01,461.50 C617.43,476.90 608.17,490.14 607.42,490.93 C606.24,492.17 605.79,492.12 604.04,490.54 C602.93,489.53 600.57,486.41 598.79,483.61 C597.00,480.80 589.57,469.87 582.27,459.32 C574.97,448.78 568.99,439.78 568.99,439.32 C568.96,437.73 562.18,430.51 561.41,431.26 C560.99,431.68 560.38,481.31 560.07,541.55 C559.57,637.40 559.31,651.19 558.00,652.02 C557.17,652.55 546.00,652.98 532.87,652.98 C514.06,653.00 509.01,652.72 508.11,651.63 Z" fill="rgb(254,254,254)"/>
</g>
</svg>